# xmcd
#
# Track frame offsets: 
#        150
#        21145
#        35731
#        49869
#        69372
#        81019
#        94946
#        111130
#        125127
#        142381
#        154917
#        168740
#
# Disc length: 2475 seconds
#
# Revision: 0
# Processed by: cddbd v1.5.2PL0 Copyright (c) Steve Scherf et al.
# Submitted via: ExactAudioCopy v0.99pb4
#
DISCID=af09a90c
DTITLE=David Paul - Island Dreams
DYEAR=2004
DGENRE=Instrumental
TTITLE0=Orange Blossom Special (by request)
TTITLE1=Smooth Sailing
TTITLE2=The Rapture
TTITLE3=Don't Come Crying To Me
TTITLE4=Vincent
TTITLE5=Dancing In The Moonlight
TTITLE6=Island Dreams
TTITLE7=I'm On A Roll (reprised)
TTITLE8=Reminiscing About Chet - Trombone
TTITLE9=Good Morning Diane
TTITLE10=Southern Hospitality
TTITLE11=What Love Should Be
EXTD=
EXTT0=
EXTT1=
EXTT2=
EXTT3=
EXTT4=
EXTT5=
EXTT6=
EXTT7=
EXTT8=
EXTT9=
EXTT10=
EXTT11=
PLAYORDER=
